<?xml version="1.0" standalone="no"?>
<!DOCTYPE svg PUBLIC "-//W3C//DTD SVG 20010904//EN"
 "http://www.w3.org/TR/2001/REC-SVG-20010904/DTD/svg10.dtd">
<svg version="1.0" xmlns="http://www.w3.org/2000/svg"
 width="512.000000pt" height="512.000000pt" viewBox="0 0 512.000000 512.000000"
 preserveAspectRatio="xMidYMid meet">
<metadata>
Created by potrace 1.11, written by Peter Selinger 2001-2013
</metadata>
<g transform="translate(0.000000,512.000000) scale(0.100000,-0.100000)"
fill="#000000" stroke="none">
<path d="M0 2560 l0 -2560 2560 0 2560 0 0 2560 0 2560 -2560 0 -2560 0 0
-2560z m2789 1372 c14 -10 34 -31 45 -46 20 -26 21 -42 24 -397 l3 -370 71 65
c80 75 195 138 285 156 84 18 243 8 318 -20 155 -58 244 -166 298 -358 20 -74
21 -97 22 -587 l0 -510 -23 -33 c-64 -89 -202 -85 -257 8 -19 34 -20 55 -25
515 -5 475 -5 481 -29 539 -50 124 -135 171 -300 164 -81 -3 -106 -8 -154 -31
-72 -36 -138 -102 -174 -175 l-28 -57 -5 -467 c-5 -455 -6 -467 -26 -495 -65
-87 -193 -87 -258 0 -21 28 -21 30 -24 1005 -2 880 -1 981 14 1020 16 42 60
85 99 95 33 9 98 -2 124 -21z m-1765 -107 c43 -20 66 -63 66 -120 0 -40 -5
-52 -34 -81 l-34 -34 -261 0 -261 0 0 -1060 0 -1060 240 0 c262 0 288 -4 328
-55 27 -34 29 -104 5 -146 -34 -57 -47 -59 -431 -59 -347 0 -349 0 -383 23
-18 12 -39 34 -46 47 -18 36 -18 2454 0 2490 7 13 28 35 46 47 34 23 36 23
383 23 292 0 355 -3 382 -15z m3834 -5 c65 -40 62 32 62 -1295 0 -1327 3
-1255 -62 -1295 -31 -19 -50 -20 -388 -20 -338 0 -357 1 -388 20 -67 41 -79
138 -23 193 40 40 81 46 339 47 l222 0 0 1054 0 1055 -257 3 c-240 3 -260 4
-285 23 -77 57 -74 167 5 215 30 19 53 20 387 20 338 0 357 -1 388 -20z
m-2893 -485 c182 -50 355 -189 355 -285 0 -36 -31 -91 -64 -112 -24 -14 -44
-18 -84 -15 -45 3 -59 9 -95 44 -96 92 -177 124 -312 126 -159 2 -245 -47
-261 -149 -10 -72 18 -131 82 -169 49 -29 85 -42 338 -120 227 -70 326 -137
388 -263 32 -64 33 -71 33 -187 0 -116 -1 -123 -33 -187 -61 -124 -205 -227
-368 -264 -59 -13 -106 -15 -208 -11 -217 9 -360 64 -493 190 -115 109 -133
176 -65 248 28 31 47 42 79 46 65 9 88 -2 173 -82 97 -90 177 -131 290 -147
139 -21 278 18 328 92 16 25 22 47 22 90 0 114 -59 156 -335 240 -93 28 -196
62 -229 76 -126 51 -217 130 -264 232 -24 51 -27 68 -27 172 0 110 2 118 33
182 59 121 206 228 362 263 82 18 270 13 355 -10z"/>
</g>
</svg>
